<?xml version="1.0" encoding="utf-8"?>
<!-- Generator: Adobe Illustrator 28.1.0, SVG Export Plug-In . SVG Version: 6.00 Build 0)  -->
<svg version="1.1" id="Calque_1" xmlns="http://www.w3.org/2000/svg" xmlns:xlink="http://www.w3.org/1999/xlink" x="0px" y="0px"
	 viewBox="0 0 498.8 429.6" style="enable-background:new 0 0 498.8 429.6;" xml:space="preserve">
<style type="text/css">
	.st0{fill:#FFFFFF;}
	.st1{fill:#469B69;}
	.st2{fill:#020100;}
	.st3{fill:#3B865C;}
	.st4{fill:url(#SVGID_1_);}
	
		.st5{clip-path:url(#SVGID_00000051364791725820775930000017698661399039627920_);fill:url(#SVGID_00000140729022350814382510000009918661622068269191_);}
</style>
<path class="st0" d="M326.6,260.8c-2.6,8-20.3,45.6-45,71.5c-8.2,8.6-15.4,15.9-23.6,15.9c-0.5,0-2.2,1.6-2.7,1.5
	c-2.6-0.4-3.5,0.6-4.1-0.8c0,0-2.1-4.1-4.9-2.9c-2.7,1.2-9.1,2.4-12.3-1.5c-21.6,8.7-41.3,11.3-58.3,11.3c-32.2,0-54.1-9-58.2-11.1
	c-1.5,2.4-4.2,2.5-5.7,2.7c-3.7,0.4-10.4,1.9-12.2,0c0,0-0.9,4.8-6.2,3.1c-0.9-0.3-3,0.5-3.4,0c-6.4-5-36.5-31.8-46-49.4
	c-16.3-30.3-21.6-48.4-19.9-70.9l0.1-7.2l-1.9-5.3l-0.1-6.3c-2.5-7.5-7.6-25.5-7.7-32.8c-0.1-8.1,2.1-18.2,3-21
	c0-4.3,1.7-22.4,3.1-29.1c2.9-13.3,9.7-36,28.4-58.3c4.3-5.1,8.4-12.7,13-16.8c-4.5-11.8-8.2-27.4,9-35.4c18-8.4,32.6,0.6,41.6,10.2
	c8.3-3.7,30.9-13.6,56.8-13.6s48.1,10,56,14.1c4.9-4.9,14.6-14.3,30-14.6c17.2-0.3,20.1,6,21.9,12c0.1,0.5,4.8,13.4-2.7,27
	c6.9,6.8,25.3,25.7,36.5,52.1c12.8,30.2,12,54,11.5,58.2c2.3,5.4,6.2,16.7,10.2,32C340,222.3,326.8,260.4,326.6,260.8L326.6,260.8z"
	/>
<ellipse transform="matrix(0.9871 -0.1601 0.1601 0.9871 -19.0622 36.6728)" cx="218.1" cy="136.7" rx="16.2" ry="22.6"/>
<ellipse transform="matrix(0.1601 -0.9871 0.9871 0.1601 -34.2033 233.131)" cx="119.9" cy="136.7" rx="22.6" ry="16.2"/>
<ellipse transform="matrix(0.9281 -0.3723 0.3723 0.9281 -32.5256 90.1845)" class="st0" cx="217.2" cy="129.3" rx="4.3" ry="6.2"/>
<ellipse transform="matrix(0.3723 -0.9281 0.9281 0.3723 -43.4331 194.3656)" class="st0" cx="122" cy="129.3" rx="6.2" ry="4.3"/>
<path class="st1" d="M108.1,108.2c0.4-6.5,5.5-14.2,12.8-13.7c6.3,0.3,10.8,6.7,11.1,12.5c-2.1-2.1-4-4.1-6.1-5.5
	C118.6,96,113.1,103.2,108.1,108.2L108.1,108.2z"/>
<path class="st1" d="M205.7,107.1c1-6.5,6.8-13.6,14-12.4c6.2,0.9,10.1,7.7,9.8,13.5c-1.9-2.3-3.6-4.4-5.5-6.1
	C217.3,95.9,211.2,102.5,205.7,107.1C205.7,107.1,205.7,107.1,205.7,107.1z"/>
<path d="M203,213.5c-1.6,8.6-8.3,19.2-18.3,18.4c-4.1-0.3-7.9-2.9-10.3-5.9c-1.7-2.2-3.7-4.7-4.5-7.3c-0.4,1.3-1.2,2.6-2,3.8
	c-0.9,1.2-1.8,2.4-2.7,3.5c-2.4,3.1-6.3,5.7-10.3,5.9c-10,0.8-16.8-9.7-18.3-18.4c6.8,8.4,15.1,19.2,25.8,9.8
	c1.2-1.1,2.4-2.3,3.6-3.6c0.6-0.7,1-1.7,1-2.7v-23.1l-15-13.5c0,0-5.5-4.2-1.4-8.4s11.4-6.7,19.6-6.7s15.5,2.5,19.6,6.7
	c4.1,4.1-1.4,8.4-1.4,8.4l-15.5,13.9v22.7c0,1.1,0.4,2.2,1.2,3.1c1,1.1,2.1,2.2,3.2,3.2C187.9,232.7,196.2,221.9,203,213.5
	L203,213.5z"/>
<path class="st2" d="M317.6,163.6L317.6,163.6L317.6,163.6C317.6,163.5,317.6,163.6,317.6,163.6z"/>
<ellipse class="st0" cx="170.4" cy="172.3" rx="13.2" ry="4.4"/>
<path class="st3" d="M105.2,226c0,0,16.2,16.6,45.4,22.1s36.1,11.2,36.1,11.2s-21.2-6-31.9-4.3c0,0,29.8,22.4,37.8,42
	c0,0-26.5-26.4-40.1-34.7C138.9,253.9,111,241.1,105.2,226L105.2,226z"/>
<linearGradient id="SVGID_1_" gradientUnits="userSpaceOnUse" x1="174.5367" y1="186.0669" x2="173.1467" y2="515.0469" gradientTransform="matrix(1 0 0 -1 0 370.1539)">
	<stop  offset="0" style="stop-color:#1F682E"/>
	<stop  offset="1" style="stop-color:#43FF6D"/>
</linearGradient>
<path class="st4" d="M337,195.5c-4-15.3-8.1-26-10.4-31.4c0.4-4.2,2.1-28.4-10.8-58.5c-11.2-26.4-29.4-45.8-36.3-52.6
	c7.5-13.5,3.9-25.4,3.8-25.9c-1.7-6-9.7-17.2-26.9-16.9c-15.4,0.3-26.7,9.7-31.5,14.5c-7.9-4.1-29.2-13.7-55-13.7s-48.8,9-57.2,12.6
	c-9-9.6-26.3-19.8-44.3-11.4c-17.2,8.1-14.3,29.2-9.7,41c-4.6,4.1-9.4,8.9-13.6,13.9c-18.7,22.3-26.3,47.9-29.2,61.2
	c-1.4,6.7-1.7,25-1.8,29.3c-0.9,2.8-4,13.1-3.9,21.1c0.1,7.3,5.1,24.9,7.6,32.4l-0.5,11.7v0.1v0.1l0,0.7c-1.7,22.4,5.7,49.2,22,79.5
	c9.5,17.7,44.2,45.3,50.6,50.3c0.5,0.5,1.1,1,2,1.3c5.3,1.7,8.1-4.3,8.1-4.3c1.8,1.9,8.8,1.7,12.5,1.3c1.5-0.2,3.2-2.2,4.7-4.7
	c4.1,2.1,26.1,12.7,58.3,12.7c17,0,36.9-3,58.5-11.7c3.3,4,9.7,2.8,12.4,1.5c2.7-1.2,3.7,0.9,3.7,0.9c0.6,1.4,2.2,3,4.9,3.4
	c0.4,0.1,0.9,0.1,1.4,0.1c8.3,0,19.9-11.1,28-19.6c24.7-25.9,44.5-64.1,47.2-72.1C331.4,261.9,343.9,222.1,337,195.5L337,195.5z
	 M323.7,259.8c-2.5,7.6-21.5,44.1-45.3,69.1c-12.1,12.7-18.3,16-20.8,16.9h0c-1.1-0.5-2.4-1.6-3.7-3.6c-3.4-5,7.1-17.9,7.1-17.9
	c-8.6-1.7-15,18.1-20.6,18.2c-1.2,0-3.3-2.2-2.2-9.1c1.1-7,9.4-13.2,10.3-14.2c0.9-1-0.8-1.2-0.8-1.2c-6.8,0.7-13.8,11.9-14.7,12.3
	c-0.9,0.5-1.5-1.7-3.9-1.7s-4.7,3.2-4.7,3.2c0.4-8.7,2.9-13,6.7-17.4c3-3.5,12.8-7.2,16.8-8.6c0.3-0.1,0.2-0.5-0.1-0.5
	c-3.2,0.1-10.2,0.5-13.8,1.4c-4.9,1.2-12.1,8-14.1,13.3c-2.1,5.4-0.1,14,2.3,17c2.4,3,8.2,1.7,8.2,1.7s0,0.5,0.1,1.2
	c-58.4,23.5-104.4,1.7-109.2-0.7c13.8,1.4,12.8-16,5.9-24.9c-4.1-5.3-13-7.5-19.6-8.3c-0.9-0.1-1.2,1.1-0.4,1.4
	c8.1,3.6,15.6,10.7,17.2,13c2,3,2.3,10.3,1.5,11.5c-0.8,1.2-1.4,0.6-1.4,0.6c0-1.7-2.2-3.3-3.8-3.8c-1.6-0.5-4.2,2.3-4.2,2.3
	c0-2.1-3.8-5.6-5.2-7.2c-0.7-0.7-3.1-2-5.4-3.2c-0.7-0.3-1.3,0.5-0.8,1.1c3.5,3.7,6.7,8.7,7.2,9.8c0.7,1.5,1.4,5.8,0,8.9
	c-1.4,3.1-2.6,3.7-4.2,2.6c-1.6-1-7.9-10.1-10.1-13.2c-1.1-1.5-3.4-2.9-5.4-3.8c-0.8-0.4-1.6,0.6-1,1.3c3.6,4.6,6.7,12.7,5.1,15.7
	c-0.6,1.2-1.7,1.9-2.7,2.2c-9-7.1-38.6-31.3-46.5-46.1c-13-24.1-20-45.7-21-64.2c4.4,3.4,17.6,13.7,21.8,17c5,3.9,22.9,24.1,25.6,28
	c2.7,4,8.7,19.6,8.7,19.6s0.9-1.5-3.1-17.1C75,266.5,46.8,237,41.6,231.9c-3.8-3.7-11.1-15.6-14.8-21.7c-1.9-5.2-7.7-25.3-7.8-31.5
	c-0.1-5.2,1.6-12,2.7-15.8c14.5-21.9,46.1-31.4,46.1-31.4c-16.3-3.1-38.9,12.1-44.7,16.3c0.2-6.7,0.6-14.2,1.3-17.4
	c2.7-12.4,9.8-36.4,27.3-57.3c7.8-9.3,18-17.8,24.2-22.5c0.9,13.7,0.7,27.1,0.7,27.1c5.7-15.8,32.6-31.2,32.6-31.2
	c-7.7-0.8-22.7,5.7-22.7,5.7c0.2-13.9-15.4-28.8-16.4-29.7c2.3,2.6,3.8,9.4,4.8,17.5c-1.8,1.3-5.1,3.7-9.1,7
	c-0.8-2.5-1.5-5.8-1.8-9.2c-0.3-3.2-1.1-13.1,8-17.3c18.2-8.5,35,9.1,37.9,14.6l3.8-2l0,0c3.9-1.8,28.5-13,55.9-13
	c29.5,0,53.4,14.1,53.7,14.2l3.4,2l2.5-3c0.1-0.1,11.2-13.7,27.2-14c14.5-0.2,18,10.1,18.1,10.5c0.1,0.4,2.3,8-2.2,17.4l-10.3-7.9
	c2-13.6,5.1-15.9,5.4-16.1c-11.2,3.4-19.3,31.3-19.3,31.3c-1.4-1.5-8.4-5.2-8.8-5.4c6.7,5,21,27,21,27c-0.2-10.8,0-19.4,0.5-26.2
	l9.9,7.5l0,0c1.8,1.6,24.2,22.6,36.7,52c8.3,19.4,10.1,36.4,10.3,46c-6.2-5.6-27.1-23-47.8-23.7c0,0,31,11.4,46.7,31l1.5,2.5
	c1.7,3.8,6.4,15.1,11,32.5C334.6,218,326.8,250.2,323.7,259.8L323.7,259.8z"/>
<polygon class="st0" points="141.2,325.2 133,348.2 155.3,352.2 150.8,331.7 "/>
<path d="M209.9,374.2h-83l-21.6,47.1H73.8l95.9-206l92.5,206h-32L209.9,374.2z M198,346.7l-28.8-65.9l-30.1,65.9H198z"/>
<polygon class="st0" points="113.6,309.1 125.4,316.4 129,325.9 126.4,336 117.6,335 114.4,344.8 109.2,346.7 100.8,340.4 
	101.9,313.1 "/>
<g>
	<defs>
		<path id="SVGID_00000160187792291286480340000016765029230218115218_" d="M112.1,299.3l24.4,17v18.6l-8.6,4.8l-6.8-0.6l-4.1,8
			l-2.4,8.8l-14.1-0.7l-4.3,3.7l-20.2-6.1l-53.6-29.2l-28.6-69.5l-2-111.7l31.9-76.5l28.3-47.8L75.2,0l44.7-7L203-1l62-6l34.3,27.3
			l-1.7,38.6l46.9,53.9v50.8l5.3,85.2L323.6,318l-36.9,35.5l-34.6,18.6l-14.6-19l-3.7-5.1c0,0-3.7-6.5-3.6-9.5l-3.2,1.7l-6.1-0.4
			l-6.2-5l-0.1-20.7l6.7-4l34.3-31.2L117.4,290L112.1,299.3z"/>
	</defs>
	<clipPath id="SVGID_00000046298595389180898360000011668334955097105808_">
		<use xlink:href="#SVGID_00000160187792291286480340000016765029230218115218_"  style="overflow:visible;"/>
	</clipPath>
	
		<linearGradient id="SVGID_00000035500584626460605610000017626759860390231967_" gradientUnits="userSpaceOnUse" x1="174.5367" y1="186.0669" x2="173.1467" y2="515.0469" gradientTransform="matrix(1 0 0 -1 0 370.1539)">
		<stop  offset="0" style="stop-color:#1F682E"/>
		<stop  offset="1" style="stop-color:#43FF6D"/>
	</linearGradient>
	
		<path style="clip-path:url(#SVGID_00000046298595389180898360000011668334955097105808_);fill:url(#SVGID_00000035500584626460605610000017626759860390231967_);" d="
		M337,195.5c-4-15.3-8.1-26-10.4-31.4c0.4-4.2,2.1-28.4-10.8-58.5c-11.2-26.4-29.4-45.8-36.3-52.6c7.5-13.5,3.9-25.4,3.8-25.9
		c-1.7-6-9.7-17.2-26.9-16.9c-15.4,0.3-26.7,9.7-31.5,14.5c-7.9-4.1-29.2-13.7-55-13.7s-48.8,9-57.2,12.6
		c-9-9.6-26.3-19.8-44.3-11.4c-17.2,8.1-14.3,29.2-9.7,41c-4.6,4.1-9.4,8.9-13.6,13.9c-18.7,22.3-26.3,47.9-29.2,61.2
		c-1.4,6.7-1.7,25-1.8,29.3c-0.9,2.8-4,13.1-3.9,21.1c0.1,7.3,5.1,24.9,7.6,32.4l-0.5,11.7v0.1v0.1l0,0.7
		c-1.7,22.4,5.7,49.2,22,79.5c9.5,17.7,44.2,45.3,50.6,50.3c0.5,0.5,1.1,1,2,1.3c5.3,1.7,8.1-4.3,8.1-4.3c1.8,1.9,8.8,1.7,12.5,1.3
		c1.5-0.2,3.2-2.2,4.7-4.7c4.1,2.1,26.1,12.7,58.3,12.7c17,0,36.9-3,58.5-11.7c3.3,4,9.7,2.8,12.4,1.5c2.7-1.2,3.7,0.9,3.7,0.9
		c0.6,1.4,2.2,3,4.9,3.4c0.4,0.1,0.9,0.1,1.4,0.1c8.3,0,19.9-11.1,28-19.6c24.7-25.9,44.5-64.1,47.2-72.1
		C331.4,261.9,343.9,222.1,337,195.5L337,195.5z M323.7,259.8c-2.5,7.6-21.5,44.1-45.3,69.1c-12.1,12.7-18.3,16-20.8,16.9h0
		c-1.1-0.5-2.4-1.6-3.7-3.6c-3.4-5,7.1-17.9,7.1-17.9c-8.6-1.7-15,18.1-20.6,18.2c-1.2,0-3.3-2.2-2.2-9.1c1.1-7,9.4-13.2,10.3-14.2
		c0.9-1-0.8-1.2-0.8-1.2c-6.8,0.7-13.8,11.9-14.7,12.3c-0.9,0.5-1.5-1.7-3.9-1.7s-4.7,3.2-4.7,3.2c0.4-8.7,2.9-13,6.7-17.4
		c3-3.5,12.8-7.2,16.8-8.6c0.3-0.1,0.2-0.5-0.1-0.5c-3.2,0.1-10.2,0.5-13.8,1.4c-4.9,1.2-12.1,8-14.1,13.3c-2.1,5.4-0.1,14,2.3,17
		c2.4,3,8.2,1.7,8.2,1.7s0,0.5,0.1,1.2c-58.4,23.5-104.4,1.7-109.2-0.7c13.8,1.4,12.8-16,5.9-24.9c-4.1-5.3-13-7.5-19.6-8.3
		c-0.9-0.1-1.2,1.1-0.4,1.4c8.1,3.6,15.6,10.7,17.2,13c2,3,2.3,10.3,1.5,11.5c-0.8,1.2-1.4,0.6-1.4,0.6c0-1.7-2.2-3.3-3.8-3.8
		c-1.6-0.5-4.2,2.3-4.2,2.3c0-2.1-3.8-5.6-5.2-7.2c-0.7-0.7-3.1-2-5.4-3.2c-0.7-0.3-1.3,0.5-0.8,1.1c3.5,3.7,6.7,8.7,7.2,9.8
		c0.7,1.5,1.4,5.8,0,8.9c-1.4,3.1-2.6,3.7-4.2,2.6c-1.6-1-7.9-10.1-10.1-13.2c-1.1-1.5-3.4-2.9-5.4-3.8c-0.8-0.4-1.6,0.6-1,1.3
		c3.6,4.6,6.7,12.7,5.1,15.7c-0.6,1.2-1.7,1.9-2.7,2.2c-9-7.1-38.6-31.3-46.5-46.1c-13-24.1-20-45.7-21-64.2
		c4.4,3.4,17.6,13.7,21.8,17c5,3.9,22.9,24.1,25.6,28c2.7,4,8.7,19.6,8.7,19.6s0.9-1.5-3.1-17.1C75,266.5,46.8,237,41.6,231.9
		c-3.8-3.7-11.1-15.6-14.8-21.7c-1.9-5.2-7.7-25.3-7.8-31.5c-0.1-5.2,1.6-12,2.7-15.8c14.5-21.9,46.1-31.4,46.1-31.4
		c-16.3-3.1-38.9,12.1-44.7,16.3c0.2-6.7,0.6-14.2,1.3-17.4c2.7-12.4,9.8-36.4,27.3-57.3c7.8-9.3,18-17.8,24.2-22.5
		c0.9,13.7,0.7,27.1,0.7,27.1c5.7-15.8,32.6-31.2,32.6-31.2c-7.7-0.8-22.7,5.7-22.7,5.7c0.2-13.9-15.4-28.8-16.4-29.7
		c2.3,2.6,3.8,9.4,4.8,17.5c-1.8,1.3-5.1,3.7-9.1,7c-0.8-2.5-1.5-5.8-1.8-9.2c-0.3-3.2-1.1-13.1,8-17.3c18.2-8.5,35,9.1,37.9,14.6
		l3.8-2l0,0c3.9-1.8,28.5-13,55.9-13c29.5,0,53.4,14.1,53.7,14.2l3.4,2l2.5-3c0.1-0.1,11.2-13.7,27.2-14c14.5-0.2,18,10.1,18.1,10.5
		c0.1,0.4,2.3,8-2.2,17.4l-10.3-7.9c2-13.6,5.1-15.9,5.4-16.1c-11.2,3.4-19.3,31.3-19.3,31.3c-1.4-1.5-8.4-5.2-8.8-5.4
		c6.7,5,21,27,21,27c-0.2-10.8,0-19.4,0.5-26.2l9.9,7.5l0,0c1.8,1.6,24.2,22.6,36.7,52c8.3,19.4,10.1,36.4,10.3,46
		c-6.2-5.6-27.1-23-47.8-23.7c0,0,31,11.4,46.7,31l1.5,2.5c1.7,3.8,6.4,15.1,11,32.5C334.6,218,326.8,250.2,323.7,259.8L323.7,259.8
		z"/>
</g>
<g>
	<path d="M268.1,421.3l14.4-73.5l23.5,53.1l24.3-53.1l12.9,73.5h-10.6l-6.6-41.2l-20.2,44.4L286.1,380l-7.3,41.3H268.1z"/>
	<path d="M385.2,363.2l-8.4,5c-1.6-2.7-3.1-4.5-4.5-5.3c-1.5-0.9-3.4-1.4-5.7-1.4c-2.9,0-5.2,0.8-7.1,2.4c-1.9,1.6-2.8,3.6-2.8,6
		c0,3.3,2.5,6,7.4,8.1l6.8,2.8c5.5,2.2,9.6,5,12.2,8.2c2.6,3.2,3.9,7.2,3.9,11.9c0,6.3-2.1,11.5-6.3,15.6c-4.2,4.1-9.5,6.2-15.7,6.2
		c-5.9,0-10.8-1.8-14.7-5.3c-3.8-3.5-6.2-8.5-7.1-14.8l10.4-2.3c0.5,4,1.3,6.8,2.5,8.3c2.1,3,5.2,4.4,9.3,4.4c3.2,0,5.9-1.1,8-3.2
		c2.1-2.2,3.2-4.9,3.2-8.2c0-1.3-0.2-2.5-0.6-3.7s-0.9-2.1-1.7-3.1c-0.8-0.9-1.8-1.8-3-2.6c-1.2-0.8-2.7-1.6-4.4-2.3l-6.6-2.7
		c-9.4-4-14-9.7-14-17.3c0-5.1,2-9.4,5.9-12.9c3.9-3.5,8.8-5.2,14.6-5.2C374.6,351.7,380.8,355.5,385.2,363.2z"/>
	<path d="M413,362.7v58.6h-10.3v-58.6H387V353h41.7v9.7H413z"/>
	<path d="M461.2,402.1h-30.9c0.3,3.5,1.4,6.4,3.5,8.5c2,2.1,4.6,3.1,7.8,3.1c2.5,0,4.5-0.6,6.2-1.8c1.6-1.2,3.4-3.4,5.4-6.5l8.4,4.7
		c-1.3,2.2-2.7,4.1-4.1,5.7c-1.4,1.6-3,2.9-4.6,3.9c-1.7,1-3.4,1.8-5.4,2.2c-1.9,0.5-4,0.7-6.2,0.7c-6.4,0-11.6-2.1-15.5-6.2
		c-3.9-4.2-5.8-9.7-5.8-16.6c0-6.8,1.9-12.3,5.7-16.6c3.8-4.2,8.9-6.2,15.1-6.2c6.3,0,11.4,2,15,6.1c3.7,4,5.5,9.6,5.5,16.7
		L461.2,402.1z M451,394c-1.4-5.3-4.7-8-10-8c-1.2,0-2.3,0.2-3.4,0.6c-1.1,0.4-2,0.9-2.9,1.6c-0.9,0.7-1.6,1.5-2.2,2.5
		c-0.6,1-1.1,2.1-1.4,3.3H451z"/>
	<path d="M466.3,378.2h10v3.9c1.8-1.9,3.5-3.2,4.9-3.9c1.4-0.7,3.2-1.1,5.1-1.1c2.6,0,5.4,0.9,8.2,2.6l-4.6,9.1
		c-1.9-1.4-3.7-2-5.5-2c-5.4,0-8.1,4.1-8.1,12.3v22.3h-10V378.2z"/>
</g>
</svg>
